<svg id="Layer_1" data-name="Layer 1" xmlns="http://www.w3.org/2000/svg" xmlns:xlink="http://www.w3.org/1999/xlink" viewBox="0 0 1013.3 363.36"><defs><style>.cls-1{fill:#1f85ca;}.cls-2{fill:#0a224f;}.cls-3{fill:url(#linear-gradient);}.cls-4{isolation:isolate;}.cls-5{fill:#1a1311;}</style><linearGradient id="linear-gradient" x1="3.14" y1="758.62" x2="5.38" y2="762.49" gradientTransform="matrix(49.96, 0, 0, -49.96, -48.96, 38421.01)" gradientUnits="userSpaceOnUse"><stop offset="0" stop-color="#004f9f"/><stop offset="1" stop-color="#0a224f"/></linearGradient></defs><title>PrimeDX_logo</title><g id="Group_6097" data-name="Group 6097"><path id="Path_1" data-name="Path 1" class="cls-1" d="M186.36,384,368,565.67V202.32Z" transform="translate(-4.7 -202.32)"/><path id="Path_2" data-name="Path 2" class="cls-2" d="M186.38,384,4.7,202.32V565.68Z" transform="translate(-4.7 -202.32)"/><path id="Path_3" data-name="Path 3" class="cls-3" d="M4.7,202.32,368.07,565.68,4.7,459.93Z" transform="translate(-4.7 -202.32)"/><g id="PRIME_DX" data-name="PRIME DX" class="cls-4"><g class="cls-4"><path class="cls-5" d="M471.4,387.74v34.65H460.66V330.73h25.19q14.7,0,22.79,7.16t8.08,20.19q0,13.05-9,21.35t-24.26,8.31Zm0-47.3V378h11.25q11.13,0,17-5.08t5.84-14.35q0-18.17-21.47-18.16Z" transform="translate(-4.7 -202.32)"/><path class="cls-5" d="M599.69,422.39H586.91l-15.34-25.7a56.89,56.89,0,0,0-4.09-6.1,23.36,23.36,0,0,0-4.06-4.12,14,14,0,0,0-4.48-2.34,18.37,18.37,0,0,0-5.4-.73h-8.82v39H534V330.73h27.36a39,39,0,0,1,11.09,1.5,24.67,24.67,0,0,1,8.82,4.57,21.14,21.14,0,0,1,5.85,7.64,25.22,25.22,0,0,1,2.11,10.7,25.73,25.73,0,0,1-1.44,8.79,22.91,22.91,0,0,1-4.09,7.13,24.83,24.83,0,0,1-6.39,5.34,32.65,32.65,0,0,1-8.41,3.42v.25a19.33,19.33,0,0,1,4,2.34,22.3,22.3,0,0,1,3.23,3.1,40.07,40.07,0,0,1,3,4.06q1.5,2.26,3.36,5.27Zm-55-81.95v33.24H559.3a22.07,22.07,0,0,0,7.44-1.21,17.25,17.25,0,0,0,5.92-3.49,15.63,15.63,0,0,0,3.89-5.56A18.53,18.53,0,0,0,578,356q0-7.35-4.76-11.47t-13.78-4.13Z" transform="translate(-4.7 -202.32)"/><path class="cls-5" d="M623,422.39H612.29V330.73H623Z" transform="translate(-4.7 -202.32)"/><path class="cls-5" d="M740.58,422.39H729.9V360.9q0-7.29.9-17.84h-.26a56.53,56.53,0,0,1-2.75,8.89l-31.32,70.44h-5.24L660,352.46a55.61,55.61,0,0,1-2.75-9.4H657q.51,5.51.51,18v61.36H647.13V330.73h14.19l28.12,63.92a82.39,82.39,0,0,1,4.22,11H694c1.83-5,3.31-8.78,4.41-11.25l28.7-63.66h13.43Z" transform="translate(-4.7 -202.32)"/><path class="cls-5" d="M813.26,422.39H764.68V330.73h46.53v9.71H775.42v30.49h33.11v9.66H775.42v32.08h37.84Z" transform="translate(-4.7 -202.32)"/><path class="cls-5" d="M866.76,422.39V330.73h25.31q48.45,0,48.46,44.68,0,21.22-13.46,34.1t-36,12.88Zm10.74-81.95v72.23h13.68q18,0,28.06-9.65t10-27.36q0-35.22-37.46-35.22Z" transform="translate(-4.7 -202.32)"/><path class="cls-5" d="M1018,422.39h-13.1L983.8,387.3a32,32,0,0,1-2.11-4.54h-.25c-.43,1-1.15,2.49-2.18,4.54l-21.73,35.09H944.36L975,376.3l-28.25-45.57H960l18.73,32.21a66.58,66.58,0,0,1,3.26,6.4h.25a71.92,71.92,0,0,1,3.58-6.65l19.5-32h12.34l-28.83,45.44Z" transform="translate(-4.7 -202.32)"/></g></g></g></svg>